<svg viewBox="0 0 800 800" xmlns="http://www.w3.org/2000/svg"><path d="M633.2899562285802,295.55888991540957 L633.4712225930663,215.0842755344036 M633.4712225930663,215.0842755344036 L661.526124117624,233.3734736726457 M661.526124117624,233.3734736726457 L685.3125340721466,253.58418403105546 M685.3125340721466,253.58418403105546 L704.4370461352785,275.3886447411573 M704.4370461352785,275.3886447411573 L718.5811529996856,298.43235609305725 M718.5811529996856,298.43235609305725 L727.5065991198418,322.3397424314475 M727.5065991198418,322.3397424314475 L731.0598959343199,346.72002927078677 M731.0598959343199,346.72002927078677 L729.1751023585684,371.1736619582158 M729.1751023585684,371.1736619582158 L721.8755669186622,395.2987060811265 M721.8755669186622,395.2987060811265 L709.2738735418772,418.6975216624084 M709.2738735418772,418.6975216624084 L691.570630519674,440.98339192104913 M691.570630519674,440.98339192104913 L669.051504747157,461.78704641586336 M669.051504747157,461.78704641586336 L642.0828596794797,480.7628799380954 M642.0828596794797,480.7628799380954 L611.1060054284113,497.59495926722667 M611.1060054284113,497.59495926722667 L576.6300569919266,512.0024769932281 M576.6300569919266,512.0024769932281 L539.2234852946775,523.7446170336377 M539.2234852946775,523.7446170336377 L499.5046835558531,532.6248417420369 M499.5046835558531,532.6248417420369 L458.13158158739753,538.4943440302773 M458.13158158739753,538.4943440302773 L415.79031864980516,541.2546724200718 M415.79031864980516,541.2546724200718 L373.1837145196976,540.859510988162 M373.1837145196976,540.859510988162 L331.01906499739573,537.3154904010547 M331.01906499739573,537.3154904010547 L289.99612112993833,530.6820711611667 M289.99612112993833,530.6820711611667 L250.79505320567577,521.0705026530478 M250.79505320567577,521.0705026530478 L214.06493369054309,508.6417964194769 M214.06493369054309,508.6417964194769 L180.41262503546488,493.6039264917652 M180.41262503546488,493.6039264917652 L150.39261362651513,476.2081180984342 M150.39261362651513,476.2081180984342 L124.49779126921987,456.744456845991 M124.49779126921987,456.744456845991 L103.15134723543918,435.5368210465876 M103.15134723543918,435.5368210465876 L86.69998619188425,412.93728796165453 M86.69998619188425,412.93728796165453 L75.40842127079867,389.3201262837178 M75.40842127079867,389.3201262837178 L69.45548176325201,365.0753857108011 M69.45548176325201,365.0753857108011 L68.93153107766653,340.60239516524297 M68.93153107766653,340.60239516524297 L73.83750151121257,316.3030947445639 M73.83750151121257,316.3030947445639 L84.08538314599889,292.57549027616477 M84.08538314599889,292.57549027616477 L99.50012944342677,269.8070909354352 M99.50012944342677,269.8070909354352 L119.8230157188002,248.36879170612593 M119.8230157188002,248.36879170612593 L144.71622263653592,228.60889451079146 M144.71622263653592,228.60889451079146 L173.76861044263904,210.8476563838529 M173.76861044263904,210.8476563838529 L206.50271277642707,195.37233594369832 M206.50271277642707,195.37233594369832 L242.38253801010472,182.43272658235 M242.38253801010472,182.43272658235 L280.82223604892226,172.23733548218812 M280.82223604892226,172.23733548218812 L321.1956213981077,164.95023842222628 M321.1956213981077,164.95023842222628 L362.8460228680175,160.68859897847108 M362.8460228680175,160.68859897847108 L405.0966780102594,159.52085510409012 M405.0966780102594,159.52085510409012 L447.2613880187175,161.46578591784547 M447.2613880187175,161.46578591784547 L488.65538266917264,166.49213222501345 M488.65538266917264,166.49213222501345 L528.6058873871312,174.519160230019 M528.6058873871312,174.519160230019 L566.4629308095274,185.4177614205313 M566.4629308095274,185.4177614205313 L601.6094442334337,199.0125213497748 M601.6094442334337,199.0125213497748 L633.4712225930663,215.0842755344036 M633.2899562285802,295.55888991540957 L601.4529434872422,279.4745273957975 M601.4529434872422,279.4745273957975 L566.3337206252562,265.869096265852 M566.3337206252562,265.869096265852 L528.506049108172,254.96193620264154 M528.506049108172,254.96193620264154 L488.58652243669445,246.92860213626486 M488.58652243669445,246.92860213626486 L447.2246126078103,241.8983061255958 M447.2246126078103,241.8983061255958 L405.0925781225242,239.95184678077055 M405.0925781225242,239.95184678077055 L362.87466436482794,241.1205084047017 M362.87466436482794,241.1205084047017 L321.256544253172,245.38549679407254 M321.256544253172,245.38549679407254 L280.9144612470102,252.67831904273137 M280.9144612470102,252.67831904273137 L242.50458225656834,262.8817175804985 M242.50458225656834,262.8817175804985 L206.65261087304071,275.8314851735996 M206.65261087304071,275.8314851735996 L173.94394499108654,291.31894788078347 M173.94394499108654,291.31894788078347 L144.91416092100926,309.09411296342967 M144.91416092100926,309.09411296342967 L120.04035322335665,328.86949313772163 M120.04035322335665,328.86949313772163 L99.73333945978231,350.32457716473897 M99.73333945978231,350.32457716473897 L84.3306719711997,373.11078752563327 M84.3306719711997,373.11078752563327 L74.09086840613702,396.856936754503 M74.09086840613702,396.856936754503 L69.18883216347581,421.17521117843773 M69.18883216347581,421.17521117843773 L69.71249698146482,445.6672933750049 M69.71249698146482,445.6672933750049 L75.66092332868357,469.93092974878266 M75.66092332868357,469.93092974878266 L86.9438104086928,493.56648108194594 M86.9438104086928,493.56648108194594 L103.3824611430876,516.1835957077521 M103.3824611430876,516.1835957077521 L124.71236266000011,537.4077162143715 M124.71236266000011,537.4077162143715 L150.58707594940796,556.8864946588532 M150.58707594940796,556.8864946588532 L180.58373877897068,574.2958045103719 M180.58373877897068,574.2958045103719 L214.2098426359805,589.3453384768598 M214.2098426359805,589.3453384768598 L250.91133438456845,601.7836798245862 M250.91133438456845,601.7836798245862 L290.0818274850514,611.402696324698 M290.0818274850514,611.402696324698 L331.072759881834,618.0412541695596 M331.072759881834,618.0412541695596 L373.2044971853811,621.588019603263 M373.2044971853811,621.588019603263 L415.7778403233705,621.9834870645528 M415.7778403233705,621.9834870645528 L458.08605167222055,619.2210208637936 M458.08605167222055,619.2210208637936 L499.4268659499544,613.3469720178877 M499.4268659499544,613.3469720178877 L539.1146846944096,604.4598666523586 M539.1146846944096,604.4598666523586 L576.4920957567509,592.7086248122262 M576.4920957567509,592.7086248122262 L610.9411912433275,578.2899335718676 M610.9411912433275,578.2899335718676 L641.893944854576,561.4447924796688 M641.893944854576,561.4447924796688 L668.8416380205085,542.4542233982847 M668.8416380205085,542.4542233982847 L691.343302264468,521.6344014977399 M691.343302264468,521.6344014977399 L709.0328555310012,499.33119747710924 M709.0328555310012,499.33119747710924 L721.6248478577487,475.9141663941841 M721.6248478577487,475.9141663941841 L728.9188203773402,451.770324147332 M728.9188203773402,451.770324147332 L730.8022692095366,427.29761940938357 M730.8022692095366,427.29761940938357 L727.2518560521213,402.89829979198487 M727.2518560521213,402.89829979198487 L718.3334628685146,378.972232463812 M718.3334628685146,378.972232463812 L704.2004516188244,355.91049869357573 M704.2004516188244,355.91049869357573 L685.0908863979834,334.08897005088477 M685.0908863979834,334.08897005088477 L661.3230221194603,313.8624265142665 M661.3230221194603,313.8624265142665 L633.2899562285802,295.55888991540957 M225.14122615436258,531.203669093163 L201.12168568390237,515.0210835224593 M201.12168568390237,515.0210835224593 L181.5619751620139,496.9555954893414 M181.5619751620139,496.9555954893414 L166.8961075732841,477.41423431442644 M166.8961075732841,477.41423431442644 L157.44707384502436,456.83637567984795 M157.44707384502436,456.83637567984795 L153.4201117778011,435.68360675848464 M153.4201117778011,435.68360675848464 L154.8985905865538,414.4293057868628 M154.8985905865538,414.4293057868628 L161.84281082248714,393.5479335713235 M161.84281082248714,393.5479335713235 L174.09139244527134,373.50451153782154 M174.09139244527134,373.50451153782154 L191.36550907472886,354.7443508003857 M191.36550907472886,354.7443508003857 L213.2755444203347,337.6833168914073 M213.2755444203347,337.6833168914073 L239.3301073861381,322.6988180589603 M239.3301073861381,322.6988180589603 L268.94720581246696,310.1217189485882 M268.94720581246696,310.1217189485882 L301.46724624180354,300.22928910109346 M301.46724624180354,300.22928910109346 L336.16756158303775,293.23931881734654 M336.16756158303775,293.23931881734654 L372.2782313154033,289.3055449490902 M372.2782313154033,289.3055449490902 L408.99882568128453,288.5144470113789 M408.99882568128453,288.5144470113789 L445.51575788492795,290.8833947884879 M445.51575788492795,290.8833947884879 L481.0197890662431,296.360339134157 M481.0197890662431,296.360339134157 L514.7236356317009,304.8248548598863 M514.7236356317009,304.8248548598863 L545.8789401475257,316.0906916607629 M545.8789401475257,316.0906916607629 L573.7927027651932,329.9096452185399 M573.7927027651932,329.9096452185399 L597.8423626936186,345.9768617916692 M597.8423626936186,345.9768617916692 L617.4897534529259,363.93723216173606 M617.4897534529259,363.93723216173606 L632.2930714371353,383.3930669575645 M632.2930714371353,383.3930669575645 L641.9171124509973,403.91258985969665 M641.9171124509973,403.91258985969665 L646.1410887501087,425.0393969497951 M646.1410887501087,425.0393969497951 L644.864125556707,446.30241678051925 M644.864125556707,446.30241678051925 L638.1080170990457,467.2264138484138 M638.1080170990457,467.2264138484138 L626.0174290078093,487.34257941639333 M626.0174290078093,487.34257941639333 L608.8571492394688,506.19913888706924 M608.8571492394688,506.19913888706924 L587.0066790585887,523.3716613568233 M587.0066790585887,523.3716613568233 L560.9521168482972,538.4728324287115 M560.9521168482972,538.4728324287115 L531.2754545057087,551.1614206136659 M531.2754545057087,551.1614206136659 L498.6415777672938,561.1502499558645 M498.6415777672938,561.1502499558645 L463.7832685582772,568.2129645734916 M463.7832685582772,568.2129645734916 L427.4844859399811,572.1893639170942 M427.4844859399811,572.1893639170942 L390.5623744646026,572.9891808073367 M390.5623744646026,572.9891808073367 L353.84842666768566,570.594270881396 M353.84842666768566,570.594270881396 L318.16938744525663,565.058990048055 M318.16938744525663,565.058990048055 L284.32809059723826,556.5089470971808 M284.32809059723826,556.5089470971808 L253.08510678610253,545.1379918407898 M253.08510678610253,545.1379918407898 L225.14122615436258,531.203669093163 M225.14122615436258,531.203669093163 L225.00500500399426,450.5452269883113 M225.00500500399426,450.5452269883113 L252.97064832321865,464.46873175507545 M252.97064832321865,464.46873175507545 L284.23798535388806,475.8308634374797 M284.23798535388806,475.8308634374797 L318.1056774411694,484.37427433041324 M318.1056774411694,484.37427433041324 L353.8125571267982,489.9052627541575 M353.8125571267982,489.9052627541575 L390.5551595940336,492.29831579966327 M390.5551595940336,492.29831579966327 L427.5060895409343,491.4991190239425 M427.5060895409343,491.4991190239425 L463.8332001716533,487.52580295010046 M463.8332001716533,487.52580295010046 L498.71870431529413,480.46856587913385 M498.71870431529413,480.46856587913385 L531.3780271856059,470.48748601540314 M531.3780271856059,470.48748601540314 L561.0778125232935,457.8087461446735 M561.0778125232935,457.8087461446735 L587.1526550140453,442.71930223178424 M587.1526550140453,442.71930223178424 L609.0201097919069,425.5601238041267 M609.0201097919069,425.5601238041267 L626.1937022236044,406.7182271782381 M626.1937022236044,406.7182271782381 L638.2936396495139,386.617715704036 M638.2936396495139,386.617715704036 L645.0549335279682,365.71001427553193 M645.0549335279682,365.71001427553193 L646.3328121666723,344.46356759454017 M646.3328121666723,344.46356759454017 L642.1054713540256,323.35324094209005 M642.1054713540256,323.35324094209005 L632.4738711843345,302.84973759288636 M632.4738711843345,302.84973759288636 L617.6589772713861,283.4091036173951 M617.6589772713861,283.4091036173951 L597.9962594253262,265.46277576086084 M597.9962594253262,265.46277576086084 L573.927868116853,249.40812973335863 M573.927868116853,249.40812973335863 L545.9923897157134,235.59999394819556 M545.9923897157134,235.59999394819556 L514.812868529439,224.34298053190795 M514.812868529439,224.34298053190795 L481.0828407866972,215.8850967102655 M481.0828407866972,215.8850967102655 L445.5512416964711,210.4124446693788 M445.5512416964711,210.4124446693788 L409.00596165135147,208.0453537260906 M409.00596165135147,208.0453537260906 L372.2568626534569,208.83583156493228 M372.2568626534569,208.83583156493228 L336.118157872431,212.7665222399823 M336.118157872431,212.7665222399823 L301.3908936530326,219.75101510784157 M301.3908936530326,219.75101510784157 L268.8455843775493,229.63569565041132 M268.8455843775493,229.63569565041132 L239.20545571868928,242.20294664761536 M239.20545571868928,242.20294664761536 L213.1306124700706,257.17571853186774 M213.1306124700706,257.17571853186774 L191.20349976102327,274.2234086005707 M191.20349976102327,274.2234086005707 L173.91589318073784,292.96890666802557 M173.91589318073784,292.96890666802557 L161.6577161678688,312.9966747398459 M161.6577161678688,312.9966747398459 L154.70801755083266,333.8617513934717 M154.70801755083266,333.8617513934717 L153.2283094619263,355.0994792312157 M153.2283094619263,355.0994792312157 L157.25832921808632,376.2357676677279 M157.25832921808632,376.2357676677279 L166.71464955024135,396.79760664338824 M166.71464955024135,396.79760664338824 L181.39187900537948,416.32376684275897 M181.39187900537948,416.32376684275897 L200.96678006199946,434.37521217188555 M200.96678006199946,434.37521217188555 L225.00500500399426,450.5452269883113" stroke="black"  stroke-width="4"  fill="red"/>
<path d="M581.3801611407783,242.23790118042118 L581.4003136635273,230.72731599748974 M581.4003136635273,230.72731599748974 L605.9707426900367,247.05191860860896 M605.9707426900367,247.05191860860896 L626.1695414261072,265.26743521031995 M626.1695414261072,265.26743521031995 L641.5633550267307,284.98918302876433 M641.5633550267307,284.98918302876433 L651.8195629481049,305.79978059111704 M651.8195629481049,305.79978059111704 L656.7137899870245,327.2577273943202 M656.7137899870245,327.2577273943202 L656.1351202238437,348.90672243169854 M656.1351202238437,348.90672243169854 L650.0890714483107,370.28521625489077 M650.0890714483107,370.28521625489077 L638.6980216918182,390.93632723320235 M638.6980216918182,390.93632723320235 L622.1991634487017,410.4176284057452 M622.1991634487017,410.4176284057452 L600.9399286146838,428.3107963297735 M600.9399286146838,428.3107963297735 L575.3709514613935,444.2307997790028 M575.3709514613935,444.2307997790028 L546.0366527031844,457.834383937473 M546.0366527031844,457.834383937473 L513.5637067227378,468.82774853522506 M513.5637067227378,468.82774853522506 L478.64756731308665,476.9731451154712 M478.64756731308665,476.9731451154712 L442.03735436998954,482.094222060421 M442.03735436998954,482.094222060421 L404.5194272285163,484.08000211118326 M404.5194272285163,484.08000211118326 L366.9001861739714,482.887455479967 M366.9001861739714,482.887455479967 L329.9882403750816,478.542428441088 M329.9882403750816,478.542428441088 L294.57661052113906,471.1390678189339 M294.57661052113906,471.1390678189339 L261.4253058014845,460.8377221454837 M261.4253058014845,460.8377221454837 L231.24466043049424,447.8612354055178 M231.24466043049424,447.8612354055178 L204.6798823895023,432.4899678445467 M204.6798823895023,432.4899678445467 L182.29712667179285,415.0554820577867 M182.29712667179285,415.0554820577867 L164.5714393749672,395.93314283533397 M164.5714393749672,395.93314283533397 L151.87678071401058,375.5337896273107 M151.87678071401058,375.5337896273107 L144.4784727219493,354.29470724115083 M144.4784727219493,354.29470724115083 L142.52787203596608,332.6700850548327 M142.52787203596608,332.6700850548327 L146.0597511500858,311.1212200300686 M146.0597511500858,311.1212200300686 L154.99215549552753,290.10666378991465 M154.99215549552753,290.10666378991465 L169.1286309853408,270.07247468031903 M169.1286309853408,270.07247468031903 L188.16301147951106,251.44291350946213 M188.16301147951106,251.44291350946213 L211.6863258586691,234.61161107487374 M211.6863258586691,234.61161107487374 L239.1957606719078,219.93346510408995 M239.1957606719078,219.93346510408995 L270.10550631790403,207.71740282230274 M270.10550631790403,207.71740282230274 L303.75924206040804,198.22013906169997 M303.75924206040804,198.22013906169997 L339.4438560364927,191.64099791814377 M339.4438560364927,191.64099791814377 L376.4043081785065,188.11792839632895 M376.4043081785065,188.11792839632895 L413.8593039197971,187.72475700347502 M413.8593039197971,187.72475700347502 L451.0173098282802,190.46972653765823 M451.0173098282802,190.46972653765823 L487.09297556585386,196.29531221004066 M487.09297556585386,196.29531221004066 L521.3231718256495,205.07939552282053 M521.3231718256495,205.07939552282053 L552.9829137573552,216.63766330069672 M552.9829137573552,216.63766330069672 L581.4003136635273,230.72731599748974 M581.3801611407783,242.23790118042118 L552.9659195136302,228.14666663776444 M552.9659195136302,228.14666663776444 L521.3096930994515,216.58710057459945 M521.3096930994515,216.58710057459945 L487.08329531262393,207.8020302028533 M487.08329531262393,207.8020302028533 L451.0116310580153,201.97578973182783 M451.0116310580153,201.97578973182783 L413.857745640643,199.230511611103 M413.857745640643,199.230511611103 L376.40690303884435,199.62372720585503 M376.40690303884435,199.62372720585503 L339.45054966900716,203.14719277551674 M339.45054966900716,203.14719277551674 L303.76989416813814,209.72707337386845 M303.76989416813814,209.72707337386845 L270.11989346150153,219.22540423955732 M270.11989346150153,219.22540423955732 L239.21358073096863,231.44283853753103 M239.21358073096863,231.44283853753103 L211.70720409364904,246.122632197485 M211.70720409364904,246.122632197485 L188.18650808820607,262.9558228813401 M188.18650808820607,262.9558228813401 L169.1542500402908,281.58747262027464 M169.1542500402908,281.58747262027464 L155.01935510459253,301.6239061040406 M155.01935510459253,301.6239061040406 L146.0879546539465,322.64081468933057 M146.0879546539465,322.64081468933057 L142.55648003394037,344.1920898948483 M142.55648003394037,344.1920898948483 L144.50687570541544,365.8191287255203 M144.50687570541544,365.8191287255203 L151.9043720316092,387.06058271067064 M151.9043720316092,387.06058271067064 L164.59762826765578,407.4622119234666 M164.59762826765578,407.4622119234666 L182.32135109686322,426.5866830444074 M182.32135109686322,426.5866830444074 L204.70162131987064,444.0231111834719 M204.70162131987064,444.0231111834719 L231.26344536345073,459.39609015096727 M231.26344536345073,459.39609015096727 L261.4407311845022,472.37402087547986 M261.4407311845022,472.37402087547986 L294.5883428383639,482.6765123356356 M294.5883428383639,482.6765123356356 L329.99602566101396,490.0806961284711 M329.99602566101396,490.0806961284711 L366.9038557613367,494.42620617575216 M366.9038557613367,494.42620617575216 L404.5189015761226,495.6188853604079 M404.5189015761226,495.6188853604079 L442.0326448724617,493.6328845836696 M442.0326448724617,493.6328845836696 L478.63877604422794,488.51123833585314 M478.63877604422794,488.51123833585314 L513.5510241095815,480.3649360108087 M513.5510241095815,480.3649360108087 L546.0203532097144,469.3703485294701 M546.0203532097144,469.3703485294701 L575.351387382939,455.76525041068123 M575.351387382939,455.76525041068123 L600.9175221496456,439.84347419213714 M600.9175221496456,439.84347419213714 L622.174397254053,421.9483124750592 M622.174397254053,421.9483124750592 L638.6714281638889,402.46483898029834 M638.6714281638889,402.46483898029834 L650.0612209889994,381.8114234525657 M650.0612209889994,381.8114234525657 L656.1066087786618,360.4305419739471 M656.1066087786618,360.4305419739471 L656.6852261458056,338.77912706514593 M656.6852261458056,338.77912706514593 L651.7915549004264,317.318779754357 M651.7915549004264,317.318779754357 L641.5364976508212,296.50585221014995 M641.5364976508212,296.50585221014995 L626.1444037909567,276.7818945982309 M626.1444037909567,276.7818945982309 L605.9478562094032,258.56433548658407 M605.9478562094032,258.56433548658407 L581.3801611407783,242.23790118042118 M544.1464745961097,252.19636155630087 L565.9832104589979,267.0025673261726 M565.9832104589979,267.0025673261726 L583.3049348429402,283.6810584752605 M583.3049348429402,283.6810584752605 L595.6362086236746,301.78004625151186 M595.6362086236746,301.78004625151186 L602.6361259800029,320.80826961251404 M602.6361259800029,320.80826961251404 L604.1080515544722,340.2481492096081 M604.1080515544722,340.2481492096081 L600.0056567536363,359.56972129974173 M600.0056567536363,359.56972129974173 L590.4347726485938,378.24508180380553 M590.4347726485938,378.24508180380553 L575.6512592104814,395.7628626550601 M575.6512592104814,395.7628626550601 L556.0545068506171,411.6423953777172 M556.0545068506171,411.6423953777172 L532.177031590435,425.44713592074515 M532.177031590435,425.44713592074515 L504.6701255677252,436.7969311125246 M504.6701255677252,436.7969311125246 L474.2861097072344,445.37877184665166 M474.2861097072344,445.37877184665166 L441.8576127624452,450.9557309290139 M441.8576127624452,450.9557309290139 L408.2744306107549,453.37369663755567 M408.2744306107549,453.37369663755567 L374.45867779212733,452.56584350695516 M374.45867779212733,452.56584350695516 L341.33900113928553,448.55449414787535 M341.33900113928553,448.55449414787535 L309.82452823272786,441.45052530901904 M309.82452823272786,441.45052530901904 L280.77948930423327,431.4501508770842 M280.77948930423327,431.4501508770842 L254.99911180162258,418.8293330954474 M254.99911180162258,418.8293330954474 L233.18764045483755,403.935876988731 M233.18764045483755,403.935876988731 L215.9389708667124,387.17959056970005 M215.9389708667124,387.17959056970005 L203.72062552715013,369.0206928360771 M203.72062552715013,369.0206928360771 L196.86127266965622,349.9569369412085 M196.86127266965622,349.9569369412085 L195.54231545793937,330.5097526728137 M195.54231545793937,330.5097526728137 L199.79350606514868,311.20989534393226 M199.79350606514868,311.20989534393226 L209.49288920345145,292.5829159376728 M209.49288920345145,292.5829159376728 L224.3706800935646,275.13493974013875 M224.3706800935646,275.13493974013875 L244.01727182526452,259.3390708631922 M244.01727182526452,259.3390708631922 L267.89474747915364,245.6227871490915 M267.89474747915364,245.6227871490915 L295.3518147514085,234.3566561209802 M295.3518147514085,234.3566561209802 L325.64155335319725,225.84462046736726 M325.64155335319725,225.84462046736726 L357.9415509484255,220.3160429204972 M357.9415509484255,220.3160429204972 L391.37593660123224,217.91979213524752 M391.37593660123224,217.91979213524752 L425.03872028043236,218.72034053910247 M425.03872028043236,218.72034053910247 L458.0178319011389,222.69615701051328 M458.0178319011389,222.69615701051328 L489.4193763015,229.74021545811334 M489.4193763015,229.74021545811334 L518.3913608648523,239.6627942260238 M518.3913608648523,239.6627942260238 L544.1464745961097,252.19636155630087 M571.4499365407669,247.96187472858182 L595.1749457515954,263.78753291092505 M595.1749457515954,263.78753291092505 L614.5566882696846,281.4777267366077 M614.5566882696846,281.4777267366077 L629.1593852253895,300.6407028962284 M629.1593852253895,300.6407028962284 L638.6524259728777,320.85114354208775 M638.6524259728777,320.85114354208775 L642.8181149325741,341.65949308615706 M642.8181149325741,341.65949308615706 L641.557039660607,362.60177422577544 M641.557039660607,362.60177422577544 L634.8908219083931,383.209918787187 M634.8908219083931,383.209918787187 L622.9622792235075,403.02220672249825 M622.9622792235075,403.02220672249825 L606.032752975169,421.5937372019898 M606.032752975169,421.5937372019898 L584.4766616690953,438.5065225635054 M584.4766616690953,438.5065225635054 L558.7736011518263,453.3791620430116 M558.7736011518263,453.3791620430116 L529.4977073710475,465.8756427785422 M529.4977073710475,465.8756427785422 L497.30485039845405,475.71317527349873 M497.30485039845405,475.71317527349873 L462.91788441340134,482.66889309547696 M462.91788441340134,482.66889309547696 L427.1100674924727,486.5850371904299 M427.1100674924727,486.5850371904299 L390.6874190549886,487.37273199207925 M390.6874190549886,487.37273199207925 L354.4701017110667,485.0141106665223 M354.4701017110667,485.0141106665223 L319.2735796836995,479.5627023433276 M319.2735796836995,479.5627023433276 L285.8897517764756,471.14218026083347 M285.8897517764756,471.14218026083347 L255.0688509930853,459.94342472919135 M255.0688509930853,459.94342472919135 L227.50216109212457,446.22002576923865 M227.50216109212457,446.22002576923865 L203.80646411089333,430.28227154052126 M203.80646411089333,430.28227154052126 L184.51005199630634,412.48994216815197 M184.51005199630634,412.48994216815197 L170.04112175454094,393.2438659481687 M170.04112175454094,393.2438659481687 L160.71839808055637,372.9767445158754 M160.71839808055637,372.9767445158754 L156.74444333665696,352.14316966282416 M156.74444333665696,352.14316966282416 L158.20163361294794,331.2093600370752 M158.20163361294794,331.2093600370752 L165.05092173848496,310.64263109598096 M165.05092173848496,310.64263109598096 L177.13322361866582,290.90102298398625 M177.13322361866582,290.90102298398625 L194.17353591036974,272.423156477452 M194.17353591036974,272.423156477452 L215.78759597259707,255.6186967956652 M215.78759597259707,255.6186967956652 L241.49065720542467,240.85941961669357 M241.49065720542467,240.85941961669357 L270.70858341249493,228.47126509239445 M270.70858341249493,228.47126509239445 L302.7906548645683,218.72739724655924 M302.7906548645683,218.72739724655924 L337.0238613358723,211.84236011032698 M337.0238613358723,211.84236011032698 L372.6486068343947,207.96763223371744 M372.6486068343947,207.96763223371744 L408.875138852422,207.18840901940553 M408.875138852422,207.18840901940553 L444.90072069115445,209.52180468391242 M444.90072069115445,209.52180468391242 L479.92692492945946,214.91653150905614 M479.92692492945946,214.91653150905614 L513.1769862296914,223.25395273217921 M513.1769862296914,223.25395273217921 L543.9125575018666,234.35057200032873 M543.9125575018666,234.35057200032873 L571.4499365407669,247.96187472858182 M543.9943812968813,361.46668663845645 L565.8080573307519,376.2886180060752 M565.8080573307519,376.2886180060752 L583.1114619277729,392.9848125597046 M583.1114619277729,392.9848125597046 L595.429661854794,411.1029986568848 M595.429661854794,411.1029986568848 L602.422117478061,430.15139156959526 M602.422117478061,430.15139156959526 L603.892408962368,449.61186177393927 M603.892408962368,449.61186177393927 L599.7942653398771,468.9538838457081 M599.7942653398771,468.9538838457081 L590.2334145101469,487.64899586927146 M590.2334145101469,487.64899586927146 L575.4654537976776,505.1852909901985 M575.4654537976776,505.1852909901985 L555.8893575430234,521.0815956987899 M555.8893575430234,521.0815956987899 L532.037082654738,534.9009084495119 M532.037082654738,534.9009084495119 L504.5592339364101,546.2626785840982 M504.5592339364101,546.2626785840982 L474.207335476591,554.8535703496232 M474.207335476591,554.8535703496232 L441.8131318634888,560.4364096826345 M441.8131318634888,560.4364096826345 L408.26547249006956,562.8569244577193 M408.26547249006956,562.8569244577193 L374.4854901238709,562.0482196992132 M374.4854901238709,562.0482196992132 L341.4008426884881,558.0326412342775 M341.4008426884881,558.0326412342775 L309.91969017668987,550.9211811722218 M309.91969017668987,550.9211811722218 L280.90534422136585,540.9102577236922 M280.90534422136585,540.9102577236922 L255.15218880766253,528.2761208807782 M255.15218880766253,528.2761208807782 L233.3637239883209,513.3669389616814 M233.3637239883209,513.3669389616814 L216.1332200622648,496.59294894647246 M216.1332200622648,496.59294894647246 L203.92771033027614,478.4148527441735 M203.92771033027614,478.4148527441735 L197.0755226561422,459.3309272098989 M197.0755226561422,459.3309272098989 L195.75787681659264,439.86315231621916 M195.75787681659264,439.86315231621916 L200.00450233025535,420.5428450593092 M200.00450233025535,420.5428450593092 L209.6935810979441,401.89611425291855 M209.6935810979441,401.89611425291855 L224.55562036417186,384.42962395776925 M224.55562036417186,384.42962395776925 L244.18145084340986,368.6169833008442 M244.18145084340986,368.6169833008442 L268.03372612374284,354.886127596493 M268.03372612374284,354.886127596493 L295.4618412362484,343.60802183094336 M295.4618412362484,343.60802183094336 L325.719661334793,335.0869353170626 M325.719661334793,335.0869353170626 L357.98563669496934,329.55247763803635 M357.98563669496934,329.55247763803635 L391.3848134876254,327.1536778393953 M391.3848134876254,327.1536778393953 L425.01214943566526,327.95507785327817 M425.01214943566526,327.95507785327817 L457.9565283908617,331.9351233435503 M457.9565283908617,331.9351233435503 L489.3249906428774,338.98667286755557 M489.3249906428774,338.98667286755557 L518.2664363560962,348.919800461225 M518.2664363560962,348.919800461225 L543.9943812968813,361.46668663845645 M543.9943812968813,361.46668663845645 L544.1464745961097,252.19636155630087 M571.307177456735,334.21470133628674 L595.0124043802086,350.0536355606092 M595.0124043802086,350.0536355606092 L614.3779606406424,367.758660006462 M614.3779606406424,367.758660006462 L628.9684335999897,386.93769009976444 M628.9684335999897,386.93769009976444 L638.453493000932,407.1650493584891 M638.453493000932,407.1650493584891 L642.6156309260815,427.99080426348695 M642.6156309260815,427.99080426348695 L641.3555248437985,448.9505886816415 M641.3555248437985,448.9505886816415 L634.6947857493202,469.5759434355738 M634.6947857493202,469.5759434355738 L622.7761189851597,489.4047640066178 M622.7761189851597,489.4047640066178 L605.8606538844597,507.9917802504129 M605.8606538844597,507.9917802504129 L584.3225011085558,524.9186585557361 M584.3225011085558,524.9186585557361 L558.6408590568599,539.8036833541828 M558.6408590568599,539.8036833541828 L529.3893852886989,552.3105651222745 M529.3893852886989,552.3105651222745 L497.2234012082677,562.1562820163144 M497.2234012082677,562.1562820163144 L462.86515452555193,569.1177848078054 M462.86515452555193,569.1177848078054 L427.0872532283071,573.0371852158278 M427.0872532283071,573.0371852158278 L390.6950382413844,573.8255349338041 M390.6950382413844,573.8255349338041 L354.50798140251857,571.4649525102258 M354.50798140251857,571.4649525102258 L319.34086024282647,566.0090108748848 M319.34086024282647,566.0090108748848 L285.98490731940257,557.5814845231541 M285.98490731940257,557.5814845231541 L255.1897254869507,546.3734102158161 M255.1897254869507,546.3734102158161 L227.6460192993613,532.6385861390677 M227.6460192993613,532.6385861390677 L203.97005577216396,516.6875556511084 M203.97005577216396,516.6875556511084 L184.68968775983336,498.8803954602588 M184.68968775983336,498.8803954602588 L170.2327586680759,479.6182651449955 M170.2327586680759,479.6182651449955 L160.91773260455486,459.3342249894864 M160.91773260455486,459.3342249894864 L156.94700948009265,438.4832447263628 M156.94700948009265,438.4832447263628 L158.40290385359805,417.53193183858417 M158.40290385359805,417.53193183858417 L165.24640833946313,396.9479927856329 M165.24640833946313,396.9479927856329 L177.318578146807,377.1898521754381 M177.318578146807,377.1898521754381 L194.34464472841339,358.6965000866087 M194.34464472841339,358.6965000866087 L215.94066968747669,341.87794767116077 M215.94066968747669,341.87794767116077 L241.622312452349,327.1062853927607 M241.622312452349,327.1062853927607 L270.8159152158591,314.70773004527376 M270.8159152158591,314.70773004527376 L302.8712983364886,304.95567798108556 M302.8712983364886,304.95567798108556 L337.07604165862807,298.06485601153526 M337.07604165862807,298.06485601153526 L372.67117651889544,294.1868719015862 M372.67117651889544,294.1868719015862 L408.8676018041737,293.4069937872491 M408.8676018041737,293.4069937872491 L444.8632425572525,295.7423505012289 M444.8632425572525,295.7423505012289 L479.86032966634684,301.1416105293573 M479.86032966634684,301.1416105293573 L513.0827388287722,309.48603586148766 M513.0827388287722,309.48603586148766 L543.7927333024378,320.591973708096 M543.7927333024378,320.591973708096 L571.307177456735,334.21470133628674 M571.307177456735,334.21470133628674 L571.4499365407669,247.96187472858182 M581.2090451194108,339.9748229870404 L552.8216205469168,325.87018504298874 M552.8216205469168,325.87018504298874 L521.1952445394742,314.2996182456104 M521.1952445394742,314.2996182456104 L487.0010997679637,305.5061842369796 M487.0010997679637,305.5061842369796 L450.9634123121444,299.6743954622392 M450.9634123121444,299.6743954622392 L413.84451420720916,296.92650259458054 M413.84451420720916,296.92650259458054 L376.428936139565,297.3200927254144 M376.428936139565,297.3200927254144 L339.5073856638433,300.8469141277359 M339.5073856638433,300.8469141277359 L303.8603417774543,307.43306034539404 M303.8603417774543,307.43306034539404 L270.2420554339303,316.94043309945613 M270.2420554339303,316.94043309945613 L239.36489172648834,329.16949286997226 M239.36489172648834,329.16949286997226 L211.88448215773985,343.86324783311363 M211.88448215773985,343.86324783311363 L188.3860188166747,360.71243811844823 M188.3860188166747,360.71243811844823 L169.3717824696293,379.36178477139214 M169.3717824696293,379.36178477139214 L155.25030798818145,399.41723530502793 M155.25030798818145,399.41723530502793 L146.32743154246367,420.4540757508478 M146.32743154246367,420.4540757508478 L142.79939138849068,442.02577281590914 M142.79939138849068,442.02577281590914 L144.74804616919664,463.6732882193111 M144.74804616919664,463.6732882193111 L152.13865051797052,484.9348370487469 M152.13865051797052,484.9348370487469 L164.81999864050647,505.35575107535107 M164.81999864050647,505.35575107535107 L182.52704105843833,524.4982859395416 M182.52704105843833,524.4982859395416 L204.88620684240297,541.9511717452594 M204.88620684240297,541.9511717452594 L231.42294840789725,557.3386515328638 M231.42294840789725,557.3386515328638 L261.5717082237382,570.3288171784061 M261.5717082237382,570.3288171784061 L294.68796200816706,580.6410169071323 M294.68796200816706,580.6410169071323 L330.06213055650187,588.052175430352 M330.06213055650187,588.052175430352 L366.93501424027266,592.4017780079153 M366.93501424027266,592.4017780079153 L404.51443825994875,593.5955803175056 M404.51443825994875,593.5955803175056 L441.99265651211164,591.6077093300764 M441.99265651211164,591.6077093300764 L478.56412934110267,586.4812393782627 M478.56412934110267,586.4812393782627 L513.4433359667348,578.3272626699862 M513.4433359667348,578.3272626699862 L545.8819540837898,567.3223136736199 M545.8819540837898,567.3223136736199 L575.1852685943388,553.704387721916 M575.1852685943388,553.704387721916 L600.7272685658586,537.76759074653 M600.7272685658586,537.76759074653 L621.9641070988282,519.8555354931644 M621.9641070988282,519.8555354931644 L638.4456220026673,500.3536557308468 M638.4456220026673,500.3536557308468 L649.8247420992841,479.6807135154245 M649.8247420992841,479.6807135154245 L655.8645173370144,458.27960113124334 M655.8645173370144,458.27960113124334 L656.442689700753,436.6076822927729 M656.442689700753,436.6076822927729 L651.5537376109958,415.12699507147147 M651.5537376109958,415.12699507147147 L641.3084506577359,394.29432514244985 M641.3084506577359,394.29432514244985 L625.9309590956117,374.5516434787929 M625.9309590956117,374.5516434787929 L605.7535260874655,356.31677770460897 M605.7535260874655,356.31677770460897 L581.2090451194108,339.9748229870404 M581.2291596743752,328.48592399314947 L605.7763694358476,344.82605732357575 M605.7763694358476,344.82605732357575 L625.9560493392402,363.05889208972667 M625.9560493392402,363.05889208972667 L641.3352573806025,382.7993764129125 M641.3352573806025,382.7993764129125 L651.5816928141968,403.62972950063386 M651.5816928141968,403.62972950063386 L656.4711996264823,425.10802976367205 M656.4711996264823,425.10802976367205 L655.8929749430861,446.77754240068157 M655.8929749430861,446.77754240068157 L649.8525399459236,468.1762806285938 M649.8525399459236,468.1762806285938 L638.472165272373,488.8469313344522 M638.472165272373,488.8469313344522 L621.9888264710665,508.3466510757409 M621.9888264710665,508.3466510757409 L600.7496326551104,526.2567238344323 M600.7496326551104,526.2567238344323 L575.2047956612507,542.1917580929434 M575.2047956612507,542.1917580929434 L545.8982227336056,555.8081786740923 M545.8982227336056,555.8081786740923 L513.4559945754002,566.8119117284481 M513.4559945754002,566.8119117284481 L478.5729039680386,574.9649878351959 M478.5729039680386,574.9649878351959 L441.9973570936535,580.0908917177563 M441.9973570936535,580.0908917177563 L404.5149629171432,582.0785432330947 M404.5149629171432,582.0785432330947 L366.93135160024934,580.8848727239316 M366.93135160024934,580.8848727239316 L330.05436000860664,576.5357504111804 M330.05436000860664,576.5357504111804 L294.6762518977894,569.1254103839192 M294.6762518977894,569.1254103839192 L261.55631203197896,558.8143499372877 M261.55631203197896,558.8143499372877 L231.40419901497515,545.825620082501 M231.40419901497515,545.825620082501 L204.86450902867404,530.4398419954744 M204.86450902867404,530.4398419954744 L182.5028624356201,512.9888875333163 M182.5028624356201,512.9888875333163 L164.7938592461092,493.84847249308837 M164.7938592461092,493.84847249308837 L152.1111113287794,473.4298215903704 M152.1111113287794,473.4298215903704 L144.71969682561232,452.1706309487978 M144.71969682561232,452.1706309487978 L142.77083739500296,430.52551853517735 M142.77083739500296,430.52551853517735 L146.29928125733528,408.95621804413656 M146.29928125733528,408.95621804413656 L155.22315968269015,387.92171667410935 M155.22315968269015,387.92171667410935 L169.34621171830443,367.8684978643505 M169.34621171830443,367.8684978643505 L188.36256649385294,349.22122801613574 M188.36256649385294,349.22122801613574 L211.86364326076068,332.3739153522157 M211.86364326076068,332.3739153522157 L239.34710523378254,317.68179880998014 M239.34710523378254,317.68179880998014 L270.227695383941,305.4541033420369 M270.227695383941,305.4541033420369 L303.8497097258895,295.9477916961907 M303.8497097258895,295.9477916961907 L339.50070463273016,289.36238077905574 M339.50070463273016,289.36238077905574 L376.4263461639655,285.8359532000077 M376.4263461639655,285.8359532000077 L413.8460695529769,285.4424070228117 M413.8460695529769,285.4424070228117 L450.96908039182546,288.1899930371858 M450.96908039182546,288.1899930371858 L487.01076179555025,294.02113069173674 M487.01076179555025,294.02113069173674 L521.2086978840766,302.81358318794565 M521.2086978840766,302.81358318794565 L552.8385827818588,314.38285899829424 M552.8385827818588,314.38285899829424 L581.2291596743752,328.48592399314947 M581.2291596743752,328.48592399314947 L581.2090451194108,339.9748229870404" stroke="black"  stroke-width="4"  fill="red"/>
<path d="M638.2378838590474,295.57009323408283 L666.8670101590244,314.2616667431791 M666.8670101590244,314.2616667431791 L691.1411615130245,334.91732857117444 M691.1411615130245,334.91732857117444 L710.65880196425,357.20219288759967 M710.65880196425,357.20219288759967 L725.0947532071991,380.75404647567507 M725.0947532071991,380.75404647567507 L734.205734561419,405.1890598309096 M734.205734561419,405.1890598309096 L737.8349301065024,430.10789703327947 M737.8349301065024,430.10789703327947 L735.9148583609036,455.10218227489526 M735.9148583609036,455.10218227489526 L728.4690648815653,479.7610779350619 M728.4690648815653,479.7610779350619 L715.6123246221866,503.67814102138027 M715.6123246221866,503.67814102138027 L697.549106396072,526.4580118334421 M697.549106396072,526.4580118334421 L674.570816778074,547.7231751740333 M674.570816778074,547.7231751740333 L647.0511843557364,567.12026774743 M647.0511843557364,567.12026774743 L615.4405420863295,584.3262719960068 M615.4405420863295,584.3262719960068 L580.258380558222,599.0540188631588 M580.258380558222,599.0540188631588 L542.0849172979364,611.0572869687048 M542.0849172979364,611.0572869687048 L501.5512857679887,620.1350615760944 M501.5512857679887,620.1350615760944 L459.3290101770006,626.1351686647159 M459.3290101770006,626.1351686647159 L416.1185120650226,628.9569365198001 M416.1185120650226,628.9569365198001 L372.6371465335303,628.552973570407 M372.6371465335303,628.552973570407 L329.60688508628647,624.9300831716014 M329.60688508628647,624.9300831716014 L287.7420477781865,618.1490688640065 M287.7420477781865,618.1490688640065 L247.73689267479807,608.3236907271223 M247.73689267479807,608.3236907271223 L210.25390315139327,595.6186230532969 M210.25390315139327,595.6186230532969 L175.9124344735224,580.2465510056601 M175.9124344735224,580.2465510056601 L145.2784046374001,562.464362218431 M145.2784046374001,562.464362218431 L118.85477907411132,542.5686748087709 M118.85477907411132,542.5686748087709 L97.07332715099528,520.8906668302392 M97.07332715099528,520.8906668302392 L80.2877468072752,497.79029043673125 M80.2877468072752,497.79029043673125 L68.76803846625262,473.65016599543793 M68.76803846625262,473.65016599543793 L62.69648163734291,448.86902185686756 M62.69648163734291,448.86902185686756 L62.16506989349767,423.85507486826623 M62.16506989349767,423.85507486826623 L67.17457886166085,399.0191468429403 M67.17457886166085,399.0191468429403 L77.63494992132507,374.7679821363202 M77.63494992132507,374.7679821363202 L93.36739200280255,351.49762889527494 M93.36739200280255,351.49762889527494 L114.10774365569165,329.5870831676624 M114.10774365569165,329.5870831676624 L139.51111346119916,309.39222716540297 M139.51111346119916,309.39222716540297 L169.15794884026946,291.240309664711 M169.15794884026946,291.240309664711 L202.5609528328818,275.42478765221097 M202.5609528328818,275.42478765221097 L239.17324762080978,262.20087826438146 M239.17324762080978,262.20087826438146 L278.39707931707284,251.78156855875292 M278.39707931707284,251.78156855875292 L319.5936102526346,244.33448983064545 M319.5936102526346,244.33448983064545 L362.09286669231835,239.9792885191824 M362.09286669231835,239.9792885191824 L405.20448843082704,238.78592490504232 M405.20448843082704,238.78592490504232 L448.22843538498574,240.77354295816204 M448.22843538498574,240.77354295816204 L490.46611989783315,245.9102226963331 M490.46611989783315,245.9102226963331 L531.2312418385671,254.11349835026687 M531.2312418385671,254.11349835026687 L569.8606481542988,265.25149108522385 M569.8606481542988,265.25149108522385 L605.7248149365053,279.1449889323515 M605.7248149365053,279.1449889323515 L638.2378838590474,295.57009323408283 M638.2378838590474,295.57009323408283 L638.2114655379278,307.0553197160261 M638.2114655379278,307.0553197160261 L605.7020063298534,290.62838107960914 M605.7020063298534,290.62838107960914 L569.8418171125006,276.7333307202273 M569.8418171125006,276.7333307202273 L531.2166915727935,265.5940927852025 M531.2166915727935,265.5940927852025 L490.4560843872972,257.3898996847621 M490.4560843872972,257.3898996847621 L448.22307585323676,252.25264531815932 M448.22307585323676,252.25264531815932 L405.2038909271564,250.26480488443005 M405.2038909271564,250.26480488443005 L362.0970408104717,251.4583020176692 M362.0970408104717,251.4583020176692 L319.6024889789295,255.8139905575423 M319.6024889789295,255.8139905575423 L278.4105200402062,263.2619022222782 M278.4105200402062,263.2619022222782 L239.19103426034354,273.6823769013647 M239.19103426034354,273.6823769013647 L202.58279909965128,286.90776417127387 M202.58279909965128,286.90776417127387 L169.18350255241623,302.7250527143603 M169.18350255241623,302.7250527143603 L139.5399619141292,320.878996388238 M139.5399619141292,320.878996388238 L114.13941994337205,341.07610494058247 M114.13941994337205,341.07610494058247 L93.4013822492268,362.98909260745916 M93.4013822492268,362.98909260745916 L77.67070130283724,386.26203708216156 M77.67070130283724,386.26203708216156 L67.21150834354137,410.5158997654962 M67.21150834354137,410.5158997654962 L62.202573537539934,435.35458820652235 M62.202573537539934,435.35458820652235 L62.733944350186164,460.3713127204521 M62.733944350186164,460.3713127204521 L68.80484405602783,485.1552058854846 M68.80484405602783,485.1552058854846 L80.32328816036073,509.29800570866024 M80.32328816036073,509.29800570866024 L97.1070163804817,532.4009399093626 M97.1070163804817,532.4009399093626 L118.88605745108822,554.0813461186808 M118.88605745108822,554.0813461186808 L145.3067521312515,573.9792328062033 M145.3067521312515,573.9792328062033 L175.93737870734276,591.7633858061471 M175.93737870734276,591.7633858061471 L210.27502761531034,607.13715475214 M210.27502761531034,607.13715475214 L247.7538440250403,619.8436241523108 M247.7538440250403,619.8436241523108 L287.7545420602023,629.6700858296257 M287.7545420602023,629.6700858296257 L329.6147127746363,636.4518477042059 M329.6147127746363,636.4518477042059 L372.6401762557086,640.0751374244876 M372.6401762557086,640.0751374244876 L416.1166929563298,640.4791448959099 M416.1166929563298,640.4791448959099 L459.32237278028657,637.6570660302583 M459.32237278028657,637.6570660302583 L501.53994149087504,631.6562975061814 M501.53994149087504,631.6562975061814 L542.0690564240092,622.5775218958661 M542.0690564240092,622.5775218958661 L580.2382688587437,610.5729296511471 M580.2382688587437,610.5729296511471 L615.4165160966818,595.8435572492299 M615.4165160966818,595.8435572492299 L647.0236454401862,578.6356527556482 M647.0236454401862,578.6356527556482 L674.5402240807564,559.2364164277288 M674.5402240807564,559.2364164277288 L697.5159688518773,537.9689010186062 M697.5159688518773,537.9689010186062 L715.5771921569979,515.1865084476876 M715.5771921569979,515.1865084476876 L728.4325190132045,491.26679531672045 M728.4325190132045,491.26679531672045 L735.8775023395112,466.6051648447381 M735.8775023395112,466.6051648447381 L737.797378814086,441.6081049308713 M737.797378814086,441.6081049308713 L734.1686043145393,416.68649876222287 M734.1686043145393,416.68649876222287 L725.0586516596311,392.2487676144075 M725.0586516596311,392.2487676144075 L710.6243182735724,368.6942920376366 M710.6243182735724,368.6942920376366 L691.1088568956305,346.40694459181594 M691.1088568956305,346.40694459181594 L666.8374090112363,325.7489792673059 M666.8374090112363,325.7489792673059 L638.2114655379278,307.0553197160261 M205.14162044371196,545.6322286852077 L234.77930088484322,560.520298267782 M234.77930088484322,560.520298267782 L267.8010209109529,572.8180625048757 M267.8010209109529,572.8180625048757 L303.5315774511916,582.2713086400657 M303.5315774511916,582.2713086400657 L341.23879897594503,588.6844223108236 M341.23879897594503,588.6844223108236 L380.14894464857423,591.9245554972109 M380.14894464857423,591.9245554972109 L419.46291769772444,591.9245554972109 M419.46291769772444,591.9245554972109 L458.3730633703536,588.6844223108236 M458.3730633703536,588.6844223108236 L496.080284895107,582.2713086400657 M496.080284895107,582.2713086400657 L531.8108414353458,572.8180625048758 M531.8108414353458,572.8180625048758 L564.8325614614555,560.520298267782 M564.8325614614555,560.520298267782 L594.4702419025875,545.6322286852072 M594.4702419025875,545.6322286852072 L620.1195051984437,528.461087755128 M620.1195051984437,528.461087755128 L641.2593087260357,509.36061374609665 M641.2593087260357,509.36061374609665 L657.4623267201696,488.723436149398 M657.4623267201696,488.723436149398 L668.4035498513952,466.9728489261349 M668.4035498513952,466.9728489261349 L673.8663778599346,444.5538765028529 M673.8663778599346,444.5538765028529 L673.7465922344674,421.92405566313295 M673.7465922344674,421.92405566313295 L668.0538972407508,399.54405367985356 M668.0538972407508,399.54405367985356 L656.9111335462281,377.8682502601028 M656.9111335462281,377.8682502601028 L640.5512288224729,357.33561146719484 M640.5512288224729,357.33561146719484 L619.3119027284991,338.3609622045208 M619.3119027284991,338.3609622045208 L593.62854361622,321.32673863716076 M593.62854361622,321.32673863716076 L564.0249568553826,306.57558671707545 M564.0249568553826,306.57558671707545 L531.1027579377312,294.4036483131263 M531.1027579377312,294.4036483131263 L495.52908781027776,285.0549421569676 M495.52908781027776,285.0549421569676 L458.0234077736634,278.7166134791763 M458.0234077736634,278.7166134791763 L419.3431309591022,275.51545143823853 M419.3431309591022,275.51545143823853 L380.26873138719645,275.51545143823864 M380.26873138719645,275.51545143823864 L341.58845457263527,278.7166134791763 M341.58845457263527,278.7166134791763 L304.0827745360209,285.0549421569676 M304.0827745360209,285.0549421569676 L268.50910440856734,294.4036483131263 M268.50910440856734,294.4036483131263 L235.58690549091608,306.5755867170754 M235.58690549091608,306.5755867170754 L205.98331873007697,321.32673863716155 M205.98331873007697,321.32673863716155 L180.2999596177996,338.3609622045208 M180.2999596177996,338.3609622045208 L159.06063352382571,357.33561146719484 M159.06063352382571,357.33561146719484 L142.70072880007046,377.8682502601027 M142.70072880007046,377.8682502601027 L131.5579651055479,399.54405367985345 M131.5579651055479,399.54405367985345 L125.86527011183125,421.92405566313295 M125.86527011183125,421.92405566313295 L125.74548448636409,444.5538765028528 M125.74548448636409,444.5538765028528 L131.20831249490345,466.9728489261349 M131.20831249490345,466.9728489261349 L142.14953562612914,488.723436149398 M142.14953562612914,488.723436149398 L158.35255362026305,509.36061374609653 M158.35255362026305,509.36061374609653 L179.49235714785507,528.461087755128 M179.49235714785507,528.461087755128 L205.14162044371196,545.6322286852077 M205.14162044371196,545.6322286852077 L205.1632937602404,557.1452387523668 M205.1632937602404,557.1452387523668 L179.51687805504133,539.9721985766311 M179.51687805504133,539.9721985766311 L158.37941749131434,520.8696104374468 M158.37941749131434,520.8696104374468 L142.17819081871392,500.2301468607947 M142.17819081871392,500.2301468607947 L131.23817197590927,478.4771483462817 M131.23817197590927,478.4771483462817 L125.77593807436915,456.0556884084406 M125.77593807436915,456.0556884084406 L125.89569708598214,433.4233544711371 M125.89569708598214,433.4233544711371 L131.58774690104644,411.0408649711302 M131.58774690104644,411.0408649711302 L142.7292615289556,389.3626502559505 M142.7292615289556,389.3626502559505 L159.08734007403885,368.82772547720674 M159.08734007403885,368.82772547720674 L180.32430109205563,349.85096207723774 M180.32430109205563,349.85096207723774 L206.00480503802834,332.81483925637286 M206.00480503802834,332.81483925637286 L235.60510487922687,318.06204163050324 M235.60510487922687,318.06204163050324 L268.52365180177793,305.88874456619254 M268.52365180177793,305.88874456619254 L304.0933785261698,296.53899445364704 M304.0933785261698,296.53899445364704 L341.5949029783347,290.1999577705136 M341.5949029783347,290.1999577705136 L380.27089527310017,286.9984380871441 M380.27089527310017,286.9984380871441 L419.34096707319844,286.99843808714405 M419.34096707319844,286.99843808714405 L458.0169593679639,290.1999577705136 M458.0169593679639,290.1999577705136 L495.5184838201289,296.53899445364704 M495.5184838201289,296.53899445364704 L531.0882105445207,305.88874456619254 M531.0882105445207,305.88874456619254 L564.0067574670718,318.06204163050324 M564.0067574670718,318.06204163050324 L593.6070573082708,332.8148392563732 M593.6070573082708,332.8148392563732 L619.287561254243,349.85096207723774 M619.287561254243,349.85096207723774 L640.5245222722598,368.82772547720685 M640.5245222722598,368.82772547720685 L656.8826008173431,389.3626502559505 M656.8826008173431,389.3626502559505 L668.0241154452523,411.0408649711302 M668.0241154452523,411.0408649711302 L673.7161652603164,433.4233544711372 M673.7161652603164,433.4233544711372 L673.8359242719295,456.0556884084406 M673.8359242719295,456.0556884084406 L668.3736903703893,478.4771483462817 M668.3736903703893,478.4771483462817 L657.4336715275848,500.2301468607948 M657.4336715275848,500.2301468607948 L641.2324448549844,520.8696104374468 M641.2324448549844,520.8696104374468 L620.0949842912573,539.9721985766311 M620.0949842912573,539.9721985766311 L594.4485685860581,557.1452387523669 M594.4485685860581,557.1452387523669 L564.8141826392654,572.0349540327959 M564.8141826392654,572.0349540327959 L531.7961367197,584.3340769228929 M531.7961367197,584.3340769228929 L496.06955843952096,593.788367008305 M496.06955843952096,593.788367008305 L458.3665372778201,600.202188679966 M458.3665372778201,600.202188679966 L419.46072719747195,603.4426795064622 M419.46072719747195,603.4426795064622 L380.1511351488267,603.4426795064622 M380.1511351488267,603.4426795064622 L341.24532506847856,600.202188679966 M341.24532506847856,600.202188679966 L303.5423039067777,593.7883670083049 M303.5423039067777,593.7883670083049 L267.8157256265987,584.3340769228929 M267.8157256265987,584.3340769228929 L234.79767970703332,572.0349540327959 M234.79767970703332,572.0349540327959 L205.1632937602404,557.1452387523668" stroke="black"  stroke-width="4"  fill="red"/></svg>